<svg version="1.2" xmlns="http://www.w3.org/2000/svg" viewBox="0 0 128 128" width="128" height="128">
	<title>aws-svg</title>
	<style>
		.s0 { fill: #ffffff } 
		.s1 { fill: #ff9900 } 
	</style>
	<path id="Layer" fill-rule="evenodd" class="s0" d="m36.4 53.6q0 2.4 0.4 3.8c0.4 0.9 0.8 1.9 1.4 3q0.3 0.5 0.3 1 0 0.6-0.8 1.3l-2.7 1.7q-0.5 0.4-1.1 0.4-0.6 0-1.2-0.6-0.2-0.2-0.4-0.5-0.2-0.2-0.4-0.4-0.2-0.3-0.4-0.5-0.2-0.3-0.3-0.6-0.2-0.3-0.4-0.6-0.2-0.3-0.3-0.6-0.2-0.3-0.3-0.6-0.2-0.3-0.3-0.7-5 5.9-12.4 5.9-5.3 0-8.4-3.1-3.2-3-3.2-8.1c0-3.5 1.3-6.4 3.9-8.6 2.5-2.2 5.9-3.3 10.3-3.3q2.1 0 4.4 0.3c1.6 0.2 3.2 0.6 4.9 0.9v-3c0-3.2-0.7-5.5-2-6.8q-2-1.9-6.9-1.9-2.2 0-4.5 0.5-0.6 0.2-1.2 0.3-0.5 0.2-1.1 0.4-0.6 0.2-1.1 0.4-0.6 0.2-1.1 0.4-1.1 0.4-1.5 0.5-0.5 0.2-0.7 0.2-0.9 0-0.9-1.4v-2q0-1 0.3-1.5 0.3-0.4 1.2-0.9 2.2-1.1 5.3-1.9 3.1-0.8 6.6-0.8 7.5 0 11 3.4 3.5 3.5 3.5 10.4v13.6zm-17.1 6.4q2.1 0 4.3-0.7c1.5-0.5 2.9-1.4 4-2.7 0.7-0.8 1.2-1.7 1.5-2.7 0.2-1 0.4-2.2 0.4-3.7v-1.7q-0.5-0.2-1-0.3-0.5-0.1-0.9-0.1-0.5-0.1-1-0.2-0.5-0.1-1-0.2-0.5 0-1-0.1-0.5 0-1 0-0.5-0.1-1-0.1-0.4 0-0.9 0c-2.9 0-4.9 0.5-6.3 1.7q-2.1 1.7-2.1 4.8c0 2 0.5 3.5 1.6 4.5q1.5 1.6 4.4 1.5zm33.8 4.6c-0.8 0-1.3-0.1-1.6-0.4-0.3-0.3-0.6-0.9-0.9-1.7l-9.9-32.5q-0.3-1.3-0.4-1.7c0-0.7 0.4-1.1 1.1-1.1h4.1q1.2 0 1.6 0.5c0.4 0.2 0.6 0.8 0.9 1.6l7 27.9 6.6-27.9q0.3-1.3 0.8-1.6c0.4-0.3 0.9-0.5 1.7-0.5h3.4q1.2 0 1.7 0.5c0.3 0.2 0.6 0.8 0.8 1.6l6.6 28.2 7.3-28.2q0.4-1.3 0.8-1.6c0.4-0.3 0.9-0.5 1.7-0.5h3.9c0.7 0 1 0.4 1 1.1q0 0.3 0 0.7-0.1 0.3-0.3 1l-10.2 32.6q-0.4 1.2-0.9 1.6c-0.3 0.3-0.9 0.4-1.6 0.4h-3.6q-1.2 0-1.7-0.4c-0.3-0.3-0.6-0.8-0.8-1.7l-6.5-27.1-6.5 27.1c-0.2 0.8-0.4 1.4-0.8 1.7-0.3 0.3-0.9 0.4-1.7 0.4zm54.1 1.1c-2.2 0-4.3-0.2-6.5-0.7-2.1-0.5-3.7-1.1-4.8-1.7-0.7-0.4-1.1-0.8-1.3-1.2q-0.1-0.1-0.1-0.3-0.1-0.1-0.1-0.3 0-0.1 0-0.3 0-0.1-0.1-0.3v-2.1q0.1-1.3 1-1.3 0.4 0 0.8 0.1c0.2 0.1 0.6 0.3 1 0.4q0.6 0.3 1.2 0.5 0.5 0.2 1.1 0.4 0.6 0.2 1.2 0.3 0.6 0.2 1.2 0.3c1.6 0.3 3.3 0.5 5 0.5q4 0 6.1-1.4c1.4-0.9 2.2-2.3 2.2-4q0-1.7-1.1-2.9c-0.8-0.8-2.2-1.6-4.3-2.2l-6.1-1.9c-3.1-1-5.3-2.4-6.7-4.3-1.4-1.9-2.1-3.9-2.1-6.1q0-2.7 1.1-4.7 0.3-0.5 0.6-1 0.4-0.4 0.7-0.9 0.4-0.4 0.8-0.8 0.5-0.4 0.9-0.7c1.3-1 2.7-1.7 4.4-2.2 1.7-0.5 3.5-0.8 5.3-0.8 1 0 1.9 0.1 2.8 0.2 1 0.1 1.9 0.3 2.8 0.5q1.2 0.3 2.4 0.7 1.1 0.3 1.8 0.7 0.8 0.5 1.2 1.1 0.4 0.5 0.4 1.4v1.9q0 1.4-1 1.4-0.5 0-1.6-0.5-3.6-1.7-8.1-1.7c-2.4 0-4.3 0.4-5.6 1.2-1.3 0.8-1.9 2-1.9 3.8q0 1.7 1.2 2.9c0.9 0.8 2.4 1.6 4.7 2.4l5.9 1.9q4.6 1.4 6.6 4 1.9 2.6 1.9 5.9 0 2.7-1.1 4.9c-0.8 1.4-1.8 2.7-3.1 3.7-1.3 1-2.8 1.8-4.6 2.3-1.9 0.6-3.9 0.9-6.1 0.9z"/>
	<path id="Layer" class="s1" d="m118 73.3c-4.4 0.1-9.7 1.1-13.6 3.9-1.2 0.9-1 2 0.3 1.9 4.5-0.6 14.5-1.8 16.2 0.5 1.8 2.3-2 11.6-3.6 15.8-0.5 1.3 0.6 1.8 1.7 0.8 7.4-6.2 9.3-19.2 7.8-21.1-0.7-1-4.4-1.8-8.8-1.8zm-116.4 2.6c-0.9 0.1-1.3 1.2-0.3 2.1 16.5 14.9 38.3 23.9 62.6 23.9 17.3 0 37.4-5.5 51.3-15.7 2.2-1.7 0.3-4.3-2.1-3.2-15.5 6.6-32.4 9.8-47.8 9.8-22.7 0-44.8-6.3-62.6-16.7q-0.6-0.3-1.1-0.2z"/>
</svg>