<svg xmlns="http://www.w3.org/2000/svg" viewBox="0 0 32 32" fill="none">
  <path d="M11.622 24.74s-1.23.748.855.962c2.51.32 3.847.267 6.625-.267a10.02 10.02 0 0 0 1.763.855c-6.25 2.672-14.16-.16-9.244-1.55zm-.8-3.473s-1.336 1.015.748 1.23c2.725.32 4.862.374 8.55-.427a3.26 3.26 0 0 0 1.282.801c-7.534 2.244-15.976.214-10.58-1.604zM18.7 15.83c1.496 1.71-.427 3.26-.427 3.26s3.794-1.87 2.08-4.217c-1.55-2.24-2.832-3.366 3.794-7.267 0 0-10.42 2.566-5.447 8.225z" fill="#E76F00"/>
  <path d="M26.516 26.89s.908.748-1.015 1.336c-3.58 1.07-15.014 1.39-18.22 0-1.122-.48 1.015-1.175 1.71-1.282.695-.16 1.07-.16 1.07-.16-1.23-.855-8.171 1.763-3.526 2.51 12.77 2.084 23.296-.908 19.982-2.404zM12.262 17.538s-5.767 1.39-2.08 1.87c1.55.214 4.648.16 7.534-.053 2.35-.214 4.755-.64 4.755-.64s-.855.374-1.443.748c-5.874 1.55-17.262.855-13.983-.748 2.778-1.336 5.183-1.176 5.183-1.176zm10.42 5.767c5.874-3.046 3.153-5.98 1.282-5.554-.48.107-.695.214-.695.214s.16-.32.534-.427c3.794-1.336 6.786 3.847-1.23 5.874 0 0 .053-.053.107-.107z" fill="#5382A1"/>
  <path d="M18.378 0s3.26 3.313-3.1 8.33c-5.13 4.006-1.176 6.303 0 8.916-3.046-2.725-5.287-5.13-3.794-7.373C13.55 6.89 19.85 5.342 18.378 0z" fill="#E76F00"/>
  <path d="M12.903 31.525c5.767.374 14.587-.214 14.8-2.94 0 0-.427 1.07-4.755 1.87-4.916.908-11.007.8-14.587.214 0 0 .748.64 4.542.855z" fill="#5382A1"/>
</svg>

