<svg xmlns="http://www.w3.org/2000/svg" viewBox="0 0 32 32" fill="none">
  <path d="M16.03 2.24c-.23 0-.46.06-.66.18l-.01.01-11.12 6.5c-.4.24-.66.67-.66 1.15v13c0 .48.26.91.66 1.15l11.12 6.5.01.01c.4.23.92.23 1.32 0l.01-.01 11.12-6.5c.4-.24.66-.67.66-1.15v-13c0-.48-.26-.91-.66-1.15l-11.12-6.5-.01-.01c-.2-.12-.43-.18-.66-.18zm-.03 2.71l9.39 5.48v10.96l-9.39 5.48-9.39-5.48V10.43l9.39-5.48z" fill="#326CE5"/>
  <path d="M16 8.5c-.28 0-.5.22-.5.5v6.5H9c-.28 0-.5.22-.5.5s.22.5.5.5h6.5V23c0 .28.22.5.5.5s.5-.22.5-.5v-6.5H23c.28 0 .5-.22.5-.5s-.22-.5-.5-.5h-6.5V9c0-.28-.22-.5-.5-.5z" fill="#326CE5"/>
  <circle cx="16" cy="9.5" r="1.5" fill="#326CE5"/>
  <circle cx="22.5" cy="13" r="1.5" fill="#326CE5"/>
  <circle cx="22.5" cy="19" r="1.5" fill="#326CE5"/>
  <circle cx="16" cy="22.5" r="1.5" fill="#326CE5"/>
  <circle cx="9.5" cy="19" r="1.5" fill="#326CE5"/>
  <circle cx="9.5" cy="13" r="1.5" fill="#326CE5"/>
</svg>

