<svg xmlns="http://www.w3.org/2000/svg" viewBox="0 0 32 32" fill="none">
  <path d="M23.565 3.52c-3.043 0-5.26 1.004-6.52 2.563C15.785 4.524 13.567 3.52 10.525 3.52c-4.915 0-8.9 3.858-8.9 8.62 0 5.96 5.45 10.843 12.176 15.402.663.45 1.55.45 2.213 0C22.74 23 28.19 18.1 28.19 12.14c0-4.762-3.985-8.62-8.625-8.62zm-6.52 21.314c-5.892-4.174-10.676-8.387-10.676-12.694 0-3.497 2.86-6.34 6.383-6.34 2.535 0 4.663.827 5.95 2.34L16.545 11l2.155-2.86c1.287-1.513 3.415-2.34 5.95-2.34 3.523 0 6.383 2.843 6.383 6.34 0 4.307-4.784 8.52-10.988 12.694z" fill="#336791"/>
  <path d="M16.545 20.83c-2.535 0-4.594-2.06-4.594-4.594s2.06-4.594 4.594-4.594 4.594 2.06 4.594 4.594-2.06 4.594-4.594 4.594zm0-7.188c-1.43 0-2.594 1.164-2.594 2.594s1.164 2.594 2.594 2.594 2.594-1.164 2.594-2.594-1.164-2.594-2.594-2.594z" fill="#336791"/>
</svg>

