<svg xmlns="http://www.w3.org/2000/svg" viewBox="0 0 32 32" fill="none">
  <path d="M16 2C9.373 2 4 3.791 4 6v20c0 2.209 5.373 4 12 4s12-1.791 12-4V6c0-2.209-5.373-4-12-4z" fill="#00758F"/>
  <ellipse cx="16" cy="6" rx="12" ry="3.5" fill="#00BCF2"/>
  <path d="M16 9.5c-6.627 0-12-1.567-12-3.5v5c0 1.933 5.373 3.5 12 3.5s12-1.567 12-3.5V6c0 1.933-5.373 3.5-12 3.5z" fill="#00758F" opacity="0.8"/>
  <path d="M16 14.5c-6.627 0-12-1.567-12-3.5v5c0 1.933 5.373 3.5 12 3.5s12-1.567 12-3.5v-5c0 1.933-5.373 3.5-12 3.5z" fill="#00758F" opacity="0.6"/>
  <path d="M16 19.5c-6.627 0-12-1.567-12-3.5v5c0 1.933 5.373 3.5 12 3.5s12-1.567 12-3.5v-5c0 1.933-5.373 3.5-12 3.5z" fill="#00758F" opacity="0.4"/>
  <path d="M16 24.5c-6.627 0-12-1.567-12-3.5v5c0 1.933 5.373 3.5 12 3.5s12-1.567 12-3.5v-5c0 1.933-5.373 3.5-12 3.5z" fill="#00758F" opacity="0.2"/>
</svg>

